<svg xmlns="http://www.w3.org/2000/svg" version="1.1" xmlns:xlink="http://www.w3.org/1999/xlink" xmlns:svgjs="http://svgjs.dev/svgjs" width="308" height="304" viewBox="0 0 2000 1186"><g transform="matrix(1,0,0,1,-1.2121212121212466,0.26203626454253026)"><svg viewBox="0 0 396 235" data-background-color="#000000" preserveAspectRatio="xMidYMid meet" height="1186" width="2000" xmlns="http://www.w3.org/2000/svg" xmlns:xlink="http://www.w3.org/1999/xlink"><g id="tight-bounds" transform="matrix(1,0,0,1,0.2400000000000091,-0.05192118226601394)"><svg viewBox="0 0 395.52 235.10384236453203" height="235.10384236453203" width="395.52"><g><svg viewBox="0 0 395.52 235.10384236453203" height="235.10384236453203" width="395.52"><g><svg viewBox="0 0 395.52 235.10384236453203" height="235.10384236453203" width="395.52"><g id="textblocktransform"><svg viewBox="0 0 395.52 235.10384236453203" height="235.10384236453203" width="395.52" id="textblock"><g><svg viewBox="0 0 395.52 235.10384236453203" height="235.10384236453203" width="395.52"><g transform="matrix(1,0,0,1,0,0)"><svg width="395.52" viewBox="-1.35 -35.6 60.9 36.2" height="235.10384236453203" data-palette-color="url(#20e20d58-d927-4c05-892f-e034076cedc2)"></svg></g></svg></g></svg></g></svg></g><g></g></svg></g><defs></defs><mask id="b900e9f0-5ff5-4b39-b6bb-bedf554834dd"><g id="SvgjsG1303"><svg viewBox="0 0 395.52 235.10384236453203" height="235.10384236453203" width="395.52"><g><svg viewBox="0 0 395.52 235.10384236453203" height="235.10384236453203" width="395.52"><g><svg viewBox="0 0 395.52 235.10384236453203" height="235.10384236453203" width="395.52"><g id="SvgjsG1302"><svg viewBox="0 0 395.52 235.10384236453203" height="235.10384236453203" width="395.52" id="SvgjsSvg1301"><g><svg viewBox="0 0 395.52 235.10384236453203" height="235.10384236453203" width="395.52"><g transform="matrix(1,0,0,1,0,0)"><svg width="395.52" viewBox="-1.35 -35.6 60.9 36.2" height="235.10384236453203" data-palette-color="url(#20e20d58-d927-4c05-892f-e034076cedc2)"><path d="M3-0.65L3-0.65Q2.65 0.45 1.43 0.45 0.2 0.45-1.35-0.9L-1.35-0.9Q0.15-5.3 5-15.08 9.85-24.85 11.3-29.7L11.3-29.7Q11.5-30.5 11.5-30.8L11.5-30.8Q11.5-31.55 10.4-33.1L10.4-33.1 10-33.65 10.1-34.3Q14.35-35.5 19.5-35.5L19.5-35.5 22.55-35.3Q23.1-34.55 23.4-33L23.4-33Q24.2-29.2 24.2-13.45L24.2-13.45Q24.2-7.35 25.25-4.85L25.25-4.85Q25.65-3.9 26.05-3.9 26.45-3.9 28.5-4.9L28.5-4.9 29.15-5.2 30.15-3.4Q28.25-1.55 25.93-0.48 23.6 0.6 21.65 0.6L21.65 0.6Q16.6 0.6 16.6-7.25L16.6-7.25 16.6-11.2Q15.3-11.5 12.65-11.5 10-11.5 6.85-11L6.85-11Q4.35-5.2 3-0.65ZM8.45-14.6L16.7-14.6 16.75-20.4Q16.75-28 16.1-30.7L16.1-30.7Q15.7-30.7 15.5-30.6L15.5-30.6Q14.1-26.75 12.88-24.08 11.65-21.4 10.23-18.38 8.8-15.35 8.45-14.6L8.45-14.6ZM39.25 0.6Q37 0.6 35.47-1.28 33.95-3.15 33.95-5.9 33.95-8.65 34.65-15.6 35.35-22.55 35.35-25.5 35.35-28.45 34.7-30.1L34.7-30.1 32.65-33.9 32.85-34.65Q36.9-35.5 42.9-35.5L42.9-35.5Q43.4-33.6 43.4-29.65 43.4-25.7 42.42-18.18 41.45-10.65 41.45-8.18 41.45-5.7 43-5.7 44.55-5.7 46.97-8.35 49.4-11 51.6-15.33 53.8-19.65 54.3-23.65L54.3-23.65 49-26.75Q49.4-30.55 50.85-32.8L50.85-32.8Q52.15-34.8 53-35.35L53-35.35 53.35-35.6Q56.4-35.6 57.97-34 59.55-32.4 59.55-30.2L59.55-30.2Q59.55-24.75 56.3-17.45 53.05-10.15 48.2-4.78 43.35 0.6 39.25 0.6L39.25 0.6Z" opacity="1" transform="matrix(1,0,0,1,0,0)" fill="white" class="wordmark-text-0" id="SvgjsPath1300"></path></svg></g></svg></g></svg></g></svg></g><g></g></svg></g><defs><mask></mask></defs></svg><rect width="395.52" height="235.10384236453203" fill="black" stroke="none" visibility="hidden"></rect></g></mask><linearGradient x1="0.054" x2="0.941" y1="0.5" y2="0.5" id="20e20d58-d927-4c05-892f-e034076cedc2"><stop stop-color="#9c7945" offset="0"></stop><stop stop-color="#faf3aa" offset="0.498"></stop><stop stop-color="#9c7945" offset="1"></stop></linearGradient><rect width="395.52" height="235.10384236453203" fill="url(#20e20d58-d927-4c05-892f-e034076cedc2)" mask="url(#b900e9f0-5ff5-4b39-b6bb-bedf554834dd)" data-fill-palette-color="primary"></rect></svg><rect width="395.52" height="235.10384236453203" fill="none" stroke="none" visibility="hidden"></rect></g></svg></g></svg>